<svg xmlns="http://www.w3.org/2000/svg" xmlns:xlink="http://www.w3.org/1999/xlink" id="Capa_1" data-name="Capa 1" viewBox="0 0 1020.47 368.5"><defs><style>      .cls-1 {        fill: url(#Degradado_sin_nombre_44-7);      }      .cls-1, .cls-2, .cls-3, .cls-4, .cls-5, .cls-6, .cls-7, .cls-8, .cls-9, .cls-10, .cls-11, .cls-12, .cls-13, .cls-14, .cls-15 {        fill-rule: evenodd;      }      .cls-2 {        fill: url(#Degradado_sin_nombre_44-9);      }      .cls-3 {        fill: url(#Degradado_sin_nombre_44-15);      }      .cls-4 {        fill: url(#Degradado_sin_nombre_44-6);      }      .cls-5 {        fill: url(#Degradado_sin_nombre_44-12);      }      .cls-6 {        fill: url(#Degradado_sin_nombre_44-10);      }      .cls-7 {        fill: url(#Degradado_sin_nombre_44-13);      }      .cls-8 {        fill: url(#Degradado_sin_nombre_44-4);      }      .cls-9 {        fill: url(#Degradado_sin_nombre_44-2);      }      .cls-10 {        fill: url(#Degradado_sin_nombre_44-8);      }      .cls-11 {        fill: url(#Degradado_sin_nombre_44-11);      }      .cls-12 {        fill: url(#Degradado_sin_nombre_44-14);      }      .cls-13 {        fill: url(#Degradado_sin_nombre_44-5);      }      .cls-14 {        fill: url(#Degradado_sin_nombre_44);      }      .cls-15 {        fill: url(#Degradado_sin_nombre_44-3);      }    </style><linearGradient id="Degradado_sin_nombre_44" data-name="Degradado sin nombre 44" x1="84.51" y1="403.34" x2="435.27" y2="-264.94" gradientUnits="userSpaceOnUse"><stop offset="0" stop-color="#002b4f"></stop><stop offset=".14" stop-color="#003d6e"></stop><stop offset=".29" stop-color="#004d8a"></stop><stop offset=".42" stop-color="#00579b"></stop><stop offset=".52" stop-color="#005ba1"></stop><stop offset="1" stop-color="#316db5"></stop></linearGradient><linearGradient id="Degradado_sin_nombre_44-2" data-name="Degradado sin nombre 44" x1="105.7" y1="414.46" x2="456.46" y2="-253.82" xlink:href="#Degradado_sin_nombre_44"></linearGradient><linearGradient id="Degradado_sin_nombre_44-3" data-name="Degradado sin nombre 44" x1="278.13" y1="504.96" x2="628.89" y2="-163.32" xlink:href="#Degradado_sin_nombre_44"></linearGradient><linearGradient id="Degradado_sin_nombre_44-4" data-name="Degradado sin nombre 44" x1="352.06" y1="543.76" x2="702.81" y2="-124.52" xlink:href="#Degradado_sin_nombre_44"></linearGradient><linearGradient id="Degradado_sin_nombre_44-5" data-name="Degradado sin nombre 44" x1="404.27" y1="571.17" x2="755.02" y2="-97.11" xlink:href="#Degradado_sin_nombre_44"></linearGradient><linearGradient id="Degradado_sin_nombre_44-6" data-name="Degradado sin nombre 44" x1="458.12" y1="599.43" x2="808.88" y2="-68.85" xlink:href="#Degradado_sin_nombre_44"></linearGradient><linearGradient id="Degradado_sin_nombre_44-7" data-name="Degradado sin nombre 44" x1="518.04" y1="630.88" x2="868.8" y2="-37.4" xlink:href="#Degradado_sin_nombre_44"></linearGradient><linearGradient id="Degradado_sin_nombre_44-8" data-name="Degradado sin nombre 44" x1="582.19" y1="664.55" x2="932.95" y2="-3.73" xlink:href="#Degradado_sin_nombre_44"></linearGradient><linearGradient id="Degradado_sin_nombre_44-9" data-name="Degradado sin nombre 44" x1="623.39" y1="686.17" x2="974.14" y2="17.89" xlink:href="#Degradado_sin_nombre_44"></linearGradient><linearGradient id="Degradado_sin_nombre_44-10" data-name="Degradado sin nombre 44" x1="680.2" y1="715.99" x2="1030.96" y2="47.71" xlink:href="#Degradado_sin_nombre_44"></linearGradient><linearGradient id="Degradado_sin_nombre_44-11" data-name="Degradado sin nombre 44" x1="241.09" y1="485.52" x2="591.84" y2="-182.76" xlink:href="#Degradado_sin_nombre_44"></linearGradient><linearGradient id="Degradado_sin_nombre_44-12" data-name="Degradado sin nombre 44" x1="302.99" y1="518.01" x2="653.75" y2="-150.27" xlink:href="#Degradado_sin_nombre_44"></linearGradient><linearGradient id="Degradado_sin_nombre_44-13" data-name="Degradado sin nombre 44" x1="362.88" y1="549.44" x2="713.63" y2="-118.84" xlink:href="#Degradado_sin_nombre_44"></linearGradient><linearGradient id="Degradado_sin_nombre_44-14" data-name="Degradado sin nombre 44" x1="409.09" y1="573.7" x2="759.85" y2="-94.58" xlink:href="#Degradado_sin_nombre_44"></linearGradient><linearGradient id="Degradado_sin_nombre_44-15" data-name="Degradado sin nombre 44" x1="465.91" y1="603.52" x2="816.66" y2="-64.76" xlink:href="#Degradado_sin_nombre_44"></linearGradient></defs><path class="cls-14" d="M319.93,145.33c-28.74,3.42-48.93,36.31-107.71,43.42-19.43,2.44-47.6-9.19-49.48-20.61,3.88-9.61,18.78-16.81,34.12-19.34-4.67,2.95-9.39,9.78-8.42,16.83,1.8,13.05,7.91,21.78,23.94,20.74,13.22-.86,19.62-9.74,18.95-20.95-.43-7.29-5.57-13.78-12.13-17.12,12.62.36,31.81,5.34,42.27,11.96-1.34-15.55,1.85-79.45-16.34-81.77-19.5-2.49-4.54,41.06-19.27,40.57-7.92-.26-5.89-50.21-21.9-48.12-16.75,2.18-6.33,45.11-19.42,48.17-10.98,2.57-2.72-43.49-21.03-37.83-19.59,6.06-12.38,65.44-24.96,72.23-15.16,6.26-37.11-31.46-53.01-12.14-7.86,10.7,28.38,60.53,66.19,89.46,20.06,11.8,30.73,20.07,56.03,20.07,43.6,0,78.76-35.53,97.44-54.33,30.23-36.03,43.41-27.94,44.08-39.54-2.13-13.66-17.73-12.94-29.36-11.69Z"></path><path class="cls-9" d="M153.78,268.93c6.47,2.05,20.64-8.06,29.87-7.01,9.23,1.06,12.58,9.12,19.61,8.06,7.03-1.06,18.61-8.87,34.94-4.71,16.34,4.16,15.41,9.11,14.84,11.68-.3,1.38-11.44-3.47-19.57-2.41-8.13,1.06-29.66,8.91-35.11,6.34-5.44-2.57-10.37-8.53-14.72-7.99-4.34.53-21.67,11.1-28.77,9.05-7.1-2.05-12.37-11.62-17.78-13.76-8.96-3.56-32.51,4.11-36.09,4.71-4.29.72-6.55-4.16-6.55-4.16,2.31-2.46,12.55-6.65,22.05-8.9h-30.17v36.42h181.91v-36.42h-132.9c7.16,2.55,13.32,7.49,18.42,9.1Z"></path><path class="cls-15" d="M416.97,276.62c-.56,1.88-1.04,3.82-1.45,5.83-.42,2-.79,3.88-1.13,5.63h-.17c-.42-1.72-.81-3.58-1.2-5.6-.38-2.02-.85-3.97-1.39-5.86l-13.18-44.37h-12.41l19.3,64h17.58l19.39-64h-12.15l-13.18,44.37Z"></path><path class="cls-8" d="M480.06,232.25l-19.39,64h12.32l5.69-17.92h20.59l5.51,17.92h12.67l-19.39-64h-18.01ZM480.93,268.44l5.43-17.66c.46-1.6.87-3.25,1.22-4.94.34-1.7.69-3.41,1.02-5.14h.78c.3,1.73.63,3.44.99,5.14.36,1.7.78,3.34,1.25,4.94l5.34,17.66h-16.03Z"></path><polygon class="cls-13" points="557.81 232.25 545.76 232.25 545.76 296.25 584.95 296.25 584.95 286.1 557.81 286.1 557.81 232.25"></polygon><polygon class="cls-4" points="613.67 296.25 654.41 296.25 654.41 286.36 625.72 286.36 625.72 268.17 652.61 268.17 652.61 258.53 625.72 258.53 625.72 242.23 654.41 242.23 654.41 232.25 613.67 232.25 613.67 296.25"></polygon><path class="cls-1" d="M724.48,267.06c0,1.96.02,4,.08,6.11.05,2.1.14,4.12.27,6.04h-.17c-.71-1.58-1.51-3.22-2.39-4.93-.88-1.71-1.72-3.31-2.52-4.8l-20.43-37.22h-13.95v64h11.02v-36.09c0-1.95-.04-3.89-.11-5.83-.07-1.94-.15-3.82-.24-5.63h.17c.74,1.61,1.54,3.23,2.38,4.88.84,1.64,1.66,3.2,2.44,4.68l20.52,37.98h14.03v-64h-11.1v34.81Z"></path><path class="cls-10" d="M793.61,230.96c-5.52-.07-10.31.74-14.39,2.43-4.08,1.69-7.24,4.65-9.49,8.88-2.25,4.24-3.39,10.14-3.42,17.71v8.53c.03,7.57,1.17,13.49,3.42,17.73,2.25,4.25,5.41,7.22,9.49,8.92,4.08,1.71,8.87,2.52,14.39,2.46,2.94-.03,5.96-.21,9.06-.56,3.1-.35,5.45-.71,7.05-1.08v-9.64c-2.17.18-4.63.36-7.38.52-2.74.17-5.4.25-7.96.26-3.59.04-6.57-.47-8.94-1.55-2.37-1.08-4.15-2.97-5.32-5.69-1.17-2.71-1.76-6.5-1.76-11.38v-8.53c0-4.87.58-8.65,1.76-11.35,1.18-2.7,2.95-4.58,5.32-5.65,2.37-1.06,5.35-1.57,8.94-1.53,2.56.01,5.22.1,7.96.26,2.74.16,5.21.33,7.38.52v-9.56c-1.6-.37-3.95-.75-7.05-1.12-3.1-.37-6.12-.57-9.06-.6Z"></path><polygon class="cls-2" points="844.84 232.25 840.7 232.25 838.81 232.25 838.81 296.25 850.87 296.25 850.87 232.25 848.98 232.25 844.84 232.25"></polygon><path class="cls-6" d="M916.61,232.25h-18.01l-19.39,64h12.32l5.69-17.92h20.59l5.51,17.92h12.66l-19.39-64ZM899.47,268.44l5.43-17.66c.46-1.6.87-3.25,1.22-4.94.34-1.7.69-3.41,1.02-5.14h.78c.3,1.73.63,3.44.99,5.14.36,1.7.78,3.34,1.25,4.94l5.34,17.66h-16.03Z"></path><polygon class="cls-11" points="402.4 182.01 429.28 182.01 429.28 172.37 402.4 172.37 402.4 156.16 431.09 156.16 431.09 146.09 390.35 146.09 390.35 210.1 402.4 210.1 402.4 182.01"></polygon><polygon class="cls-5" points="501.77 200.2 473.08 200.2 473.08 182.01 499.96 182.01 499.96 172.37 473.08 172.37 473.08 156.08 501.77 156.08 501.77 146.09 461.03 146.09 461.03 210.1 501.77 210.1 501.77 200.2"></polygon><path class="cls-7" d="M553.27,186.48c.94-.01,1.84-.04,2.7-.08l14.13,23.69h12.74l-15.07-26.1c3.43-1.41,6.12-3.52,8.06-6.32,1.94-2.8,2.93-6.61,2.96-11.43v-.61c-.06-5.56-1.35-9.79-3.87-12.68-2.52-2.89-5.9-4.85-10.14-5.87-4.23-1.02-8.95-1.49-14.16-1.43-3.22,0-6.3.04-9.25.12-2.95.08-5.84.18-8.66.31v64h11.71v-23.61h5.95c.99,0,1.96,0,2.9-.01ZM544.43,176.85v-21.03c5.22-.06,9.49.07,12.83.39,3.34.32,5.8,1.19,7.39,2.61,1.59,1.42,2.38,3.76,2.37,7v.51c.03,4.06-1.25,6.86-3.84,8.41-2.58,1.54-6.62,2.27-12.11,2.2-1.12,0-2.23,0-3.32-.01-1.09-.01-2.2-.04-3.32-.08Z"></path><polygon class="cls-12" points="622.76 146.09 620.87 146.09 616.73 146.09 612.59 146.09 610.71 146.09 610.71 210.1 622.76 210.1 622.76 146.09"></polygon><path class="cls-3" d="M695.22,210.1h12.66l-19.39-64h-18.01l-19.39,64h12.32l5.69-17.92h20.59l5.51,17.92ZM671.36,182.28l5.43-17.66c.46-1.6.87-3.25,1.22-4.94.34-1.7.69-3.41,1.02-5.14h.78c.3,1.73.63,3.44.99,5.14.36,1.7.78,3.34,1.25,4.94l5.34,17.66h-16.03Z"></path></svg>