<?xml version="1.0" encoding="UTF-8" standalone="no"?>
<!-- Created with Inkscape (http://www.inkscape.org/) -->

<svg
   width="55.682575mm"
   height="28.245926mm"
   viewBox="0 0 55.682575 28.245926"
   version="1.1"
   id="svg5"
   inkscape:export-filename="full_logo.svg"
   inkscape:export-xdpi="96"
   inkscape:export-ydpi="96"
   xmlns:inkscape="http://www.inkscape.org/namespaces/inkscape"
   xmlns:sodipodi="http://sodipodi.sourceforge.net/DTD/sodipodi-0.dtd"
   xmlns="http://www.w3.org/2000/svg"
   xmlns:svg="http://www.w3.org/2000/svg">
  <sodipodi:namedview
     id="namedview7"
     pagecolor="#505050"
     bordercolor="#eeeeee"
     borderopacity="1"
     inkscape:showpageshadow="0"
     inkscape:pageopacity="0"
     inkscape:pagecheckerboard="0"
     inkscape:deskcolor="#505050"
     inkscape:document-units="mm"
     showgrid="false" />
  <defs
     id="defs2">
    <rect
       x="165.31007"
       y="340.91019"
       width="276.5874"
       height="101.34474"
       id="rect236" />
  </defs>
  <g
     inkscape:label="Capa 1"
     inkscape:groupmode="layer"
     id="layer1"
     transform="translate(-35.948483,-80.843275)">
    <text
       xml:space="preserve"
       transform="matrix(0.26458333,0,0,0.26458333,-7.7987499,-3.1681594)"
       id="text234"
       style="font-size:53.3333px;line-height:0;white-space:pre;shape-inside:url(#rect236);fill:#38bdf8;fill-opacity:1;stroke:#000000;stroke-opacity:0"><tspan
         x="165.31055"
         y="356.10349"
         id="tspan43261"><tspan
           style="opacity:1"
           id="tspan43259">ToDo </tspan></tspan></text>
    <path
       id="text30583"
       style="font-size:14.1111px;opacity:1;fill:#386af8;fill-opacity:1;stroke:#000000;stroke-width:0.264583;stroke-opacity:0"
       d="M 81.49115,93.233586 V 103.958 h 1.241785 V 93.233586 Z m -9.666077,0.649056 3.59823,10.075358 h 1.270207 l 3.59823,-10.075358 h -1.340487 l -2.257743,6.434748 c -0.150518,0.42333 -0.277374,0.81857 -0.380855,1.18546 -0.103482,0.36689 -0.188397,0.7146 -0.254248,1.04386 -0.06585,-0.32926 -0.15025,-0.67243 -0.253732,-1.02991 -0.103481,-0.36689 -0.230854,-0.75706 -0.381372,-1.17099 l -2.271696,-6.463168 z m 16.425354,2.370914 c -0.677332,0 -1.283822,0.136463 -1.820044,0.409278 -0.526814,0.272814 -0.94581,0.700384 -1.256254,1.283642 -0.310444,0.583258 -0.465604,1.340881 -0.465604,2.272214 0,0.8937 0.14607,1.62756 0.437699,2.20141 0.301036,0.57386 0.709909,0.99688 1.227315,1.26969 0.526814,0.27282 1.124214,0.40928 1.792139,0.40928 0.43274,0 0.799671,-0.0374 1.100708,-0.11265 0.310444,-0.0658 0.592977,-0.16492 0.846977,-0.29663 v -1.1007 c -0.263407,0.12229 -0.555031,0.22591 -0.874882,0.31057 -0.310444,0.0847 -0.672831,0.12713 -1.086756,0.12713 -0.714961,0 -1.255751,-0.24008 -1.62264,-0.71986 -0.357481,-0.48918 -0.536401,-1.19019 -0.536401,-2.10271 0,-1.909701 0.742953,-2.864425 2.229321,-2.864425 0.263407,0 0.54594,0.03791 0.846977,0.113171 0.301036,0.07526 0.564355,0.155112 0.790133,0.239779 l 0.380855,-1.029911 c -0.225777,-0.112889 -0.517401,-0.207411 -0.874882,-0.28267 -0.357481,-0.08467 -0.728958,-0.126608 -1.114661,-0.126608 z" />
    <path
       style="opacity:1;fill:#38bdf8;fill-opacity:1;stroke:#000000;stroke-width:0.264583;stroke-opacity:0"
       id="path30928"
       d="m 88.031097,84.676365 c -1.097672,0.173662 -2.187562,0.400735 -3.26975,0.653368 -1.2987,0.294449 -2.590247,0.621866 -3.880578,0.95164 -1.164132,0.233166 -2.296072,0.589129 -3.430653,0.931579 -0.805659,0.239525 -1.567196,0.59287 -2.350395,0.890836 -0.874829,0.325096 -1.709115,0.740974 -2.570742,1.097873 -0.930941,0.357243 -1.808326,0.814477 -2.639083,1.362916 -0.841029,0.535125 -1.615676,1.148988 -2.348389,1.822559 -0.676241,0.598164 -1.329936,1.229217 -1.927783,1.906463 -0.512631,0.553011 -0.918652,1.189241 -1.381295,1.780675 -0.418398,0.592415 -0.895855,1.13765 -1.380588,1.675677 -0.597347,0.609794 -1.352211,1.03254 -2.093692,1.441591 -0.978329,0.431374 -2.010241,0.722362 -3.057851,0.925768 -1.283787,0.20061 -2.586974,0.20722 -3.883035,0.23044 -1.906082,0.0279 -3.815046,-0.14159 -5.708513,-0.351129 -1.487231,-0.112678 -2.949916,-0.388586 -4.417417,-0.63863 -0.733277,-0.153225 -0.376031,-0.07796 -1.071771,-0.225626 0,0 3.076553,2.330645 3.076553,2.330645 v 0 c 0.682927,0.13171 0.330391,0.0654 1.057733,0.19834 1.447282,0.23629 2.894449,0.46366 4.35918,0.56485 1.916319,0.17734 3.838091,0.36483 5.764625,0.33958 1.330238,-0.008 2.66959,-0.004 3.982315,-0.24982 1.075256,-0.23545 2.140463,-0.54225 3.139879,-1.01021 0.780225,-0.43027 1.556748,-0.88783 2.179373,-1.53571 0.50473,-0.537213 0.973791,-1.105159 1.409147,-1.700273 0.444405,-0.595596 0.85361,-1.218576 1.361409,-1.764605 0.574045,-0.676679 1.213852,-1.298508 1.880756,-1.883076 0.717981,-0.657873 1.488826,-1.248384 2.312045,-1.770179 0.819489,-0.527497 1.695024,-0.949352 2.604286,-1.300435 0.860277,-0.357674 1.693852,-0.776886 2.57466,-1.084543 0.77138,-0.305499 1.540746,-0.612992 2.328564,-0.874982 1.108152,-0.363398 2.221571,-0.709531 3.364786,-0.948733 1.292198,-0.315518 2.581764,-0.641641 3.877561,-0.942025 1.110313,-0.236458 2.226842,-0.46737 3.360938,-0.551849 0,0 -3.222275,-2.272975 -3.222275,-2.272975 z" />
    <path
       id="path37029"
       style="opacity:1;fill:#6d00ff;fill-opacity:1;stroke:#000000;stroke-width:0.264583;stroke-opacity:0"
       d="m 42.891439,92.251733 c -0.440338,0.02791 -0.878761,0.0754 -1.314132,0.147795 l -3.12539,2.398303 c 0.450455,-0.162272 0.924907,-0.233452 1.397847,-0.291972 0.604752,-0.07615 1.207653,0.01745 1.807125,0.09043 0.709538,0.08467 1.421921,0.140424 2.132686,0.213424 2.104345,0.216133 -0.901782,-0.07802 1.174089,0.12299 1.050048,0.108024 2.103978,0.172783 3.157947,0.227893 1.27824,0.07174 2.554957,0.168373 3.82974,0.287321 1.113045,0.104013 2.220232,0.257476 3.321244,0.449585 0.82288,0.147902 1.625339,0.384656 2.429309,0.609782 0.635037,0.186723 1.266361,0.396651 1.882573,0.639237 0.161872,0.06373 0.921121,0.388669 1.070219,0.452169 0.789495,0.355141 1.575603,0.738076 2.304252,1.208712 0.238919,0.154315 0.853982,0.608608 1.07642,0.771012 0.797204,0.605716 1.519993,1.307536 2.200899,2.040186 0.17058,0.18354 0.332608,0.37491 0.500745,0.56069 0.172471,0.19058 0.347231,0.37895 0.520898,0.56844 0.190063,0.20198 0.382955,0.40138 0.569991,0.60617 0.656461,0.71877 0.418456,0.50261 1.090373,1.20664 0.189793,0.19886 0.386725,0.39086 0.579809,0.58653 0.180784,0.1832 0.356513,0.37149 0.542086,0.54984 0.180893,0.17385 0.370914,0.33765 0.556555,0.50643 0.566189,0.44396 1.131139,0.8983 1.771469,1.23403 0.218319,0.11446 0.44543,0.21211 0.67231,0.30851 0.22762,0.0967 0.454844,0.19708 0.690914,0.27078 0.28387,0.0886 0.577,0.14369 0.86558,0.21549 2.013868,0.35353 4.053297,0.52655 6.092135,0.65526 0.964129,0.0654 1.929681,0.0823 2.89543,0.0605 0.17827,-0.006 0.356521,-0.01 0.534851,-0.0139 l 3.128491,-2.3089 c -0.208309,0.0254 -0.416578,0.0522 -0.624768,0.0785 -1.068099,0.13679 -2.142666,0.22783 -3.220475,0.22583 -0.749759,-0.002 -1.141284,0.005 -1.903243,-0.0346 -0.672549,-0.0347 -1.478233,-0.10417 -2.146122,-0.19017 -0.34748,-0.0447 -0.695013,-0.0922 -1.039213,-0.15762 -0.31691,-0.0602 -0.628359,-0.14569 -0.942578,-0.21859 -0.25765,-0.0791 -0.51808,-0.14989 -0.77308,-0.23719 -1.118989,-0.38302 -2.158532,-0.96198 -3.078882,-1.70429 -0.456609,-0.39105 -0.697784,-0.58483 -1.131713,-1.00717 -0.77887,-0.75807 -1.497612,-1.5791 -2.201933,-2.40554 -0.875111,-0.985181 -0.144684,-0.17503 -1.034562,-1.130169 -0.400955,-0.430364 -0.64873,-0.721308 -1.068669,-1.131197 -0.177572,-0.173328 -0.363643,-0.337961 -0.547253,-0.504879 -0.182223,-0.165658 -0.366835,-0.328771 -0.550354,-0.492993 -0.180038,-0.141872 -0.355091,-0.289859 -0.540019,-0.425297 -0.179419,-0.1314 -0.367004,-0.251864 -0.552421,-0.374654 -0.190035,-0.125849 -0.379599,-0.25277 -0.574125,-0.371554 -0.550323,-0.336037 -1.132066,-0.612599 -1.701705,-0.913122 -0.938812,-0.436369 -1.883196,-0.862593 -2.85874,-1.211296 -0.822238,-0.257516 -1.66346,-0.449596 -2.510442,-0.606681 -0.518466,-0.08856 -1.037913,-0.163042 -1.561145,-0.218592 -0.476998,-0.05064 -0.733627,-0.06249 -1.217496,-0.103353 -0.227164,-0.01919 -0.454041,-0.04104 -0.681096,-0.06149 -0.229525,-0.02391 -0.459321,-0.04791 -0.688847,-0.07183 -0.227474,-0.01921 -0.454994,-0.03447 -0.682128,-0.05736 -0.78741,-0.07936 -1.570737,-0.198372 -2.361613,-0.243912 -1.063245,-0.07345 -2.129541,-0.105983 -3.192054,-0.191203 -0.382674,-0.03041 -0.801734,-0.06009 -1.182873,-0.104903 -0.657,-0.07725 -1.313094,-0.184888 -1.960087,-0.321428 -0.765907,-0.13214 0.09905,0.01484 -0.630969,-0.103353 -0.100875,-0.0163 -0.200947,-0.03816 -0.302308,-0.05116 -0.296783,-0.0379 -0.597149,-0.03404 -0.895552,-0.03204 z" />
    <path
       id="path37967"
       style="opacity:1;fill:#ff0000;fill-opacity:1;stroke:#000000;stroke-width:0.264583;stroke-opacity:0"
       d="m 79.23444,105.32484 c -0.03109,0.005 -0.06134,0.0103 -0.183968,0.0315 -0.499168,0.0867 -0.999945,0.16493 -1.501717,0.23513 -0.192474,0.0251 -0.385366,0.0481 -0.578259,0.0692 l 0.936377,0.68058 v -5.1e-4 c 0.03923,-0.004 0.07837,-0.0117 0.117822,-0.0129 0.08425,-0.003 0.259891,0.0107 0.340031,0.0145 0.192304,0.009 0.38442,0.0147 0.576709,0.0248 0.301079,0.0153 0.602925,0.0205 0.904337,0.0217 0.22165,-0.0127 0.443988,-7.1e-4 0.665593,-0.0119 0.137665,-0.007 0.275288,-0.0209 0.412894,-0.0289 0.413754,-0.0231 0.827927,-0.0333 1.242302,-0.0336 0.426127,0.006 0.852971,-0.0198 1.278475,0.004 0.49794,0.0206 0.995074,0.0626 1.490865,0.11317 0.467671,0.0571 0.935022,0.11336 1.402498,0.17311 0.464492,0.059 0.924735,0.14697 1.386479,0.22324 0.205859,0.05 0.417342,0.0679 0.624768,0.10904 0.143211,0.0284 0.284966,0.0683 0.427881,0.0987 0.03397,0.006 0.06783,0.0128 0.101802,0.0191 l -2.097546,-1.58078 c -0.06925,0.0827 -0.197968,0.14315 -0.387056,0.14315 H 85.292985 84.01296 82.948942 c -0.358923,-0.001 -0.717602,0.005 -1.07642,-0.005 -0.407233,-0.01 -0.812393,-0.0561 -1.217497,-0.0951 -0.439141,-0.0403 -0.875595,-0.1 -1.310514,-0.17208 -0.03665,-0.007 -0.0734,-0.0134 -0.110071,-0.0202 z" />
    <path
       id="path38196"
       style="opacity:1;fill:#ffff00;fill-opacity:1;stroke:#000000;stroke-width:0.264583;stroke-opacity:0"
       d="m 83.312467,105.10781 v 5.2e-4 5.2e-4 c -0.177872,9.3e-4 -0.355826,0.005 -0.533301,0.0165 -0.468182,0.0322 -0.934774,0.0824 -1.403015,0.11421 -0.708587,0.0353 -1.417183,0.0514 -2.126485,0.0258 -0.16732,-0.004 -0.334874,-0.007 -0.502295,-0.01 h -5.17e-4 c -0.08908,0.0249 -0.177581,0.0521 -0.26355,0.0863 -0.09039,0.0345 -0.180911,0.0695 -0.270784,0.10542 l 0.647505,0.47077 c 0.03458,-0.007 0.06925,-0.0146 0.10387,-0.0217 0.157659,-0.0322 0.317238,-0.0523 0.47749,-0.0656 0.128629,-0.009 0.257617,-0.013 0.38654,-0.016 0.10121,-0.002 0.202633,-0.003 0.303857,-0.003 0.02335,-7.5e-4 0.04644,-10e-4 0.06976,-10e-4 0.06995,1.4e-4 0.139929,0.004 0.209807,0.008 0.04553,0.003 0.09085,0.005 0.136426,0.006 3.44e-4,1e-5 0.001,-1e-5 0.001,0 0.324425,-0.0616 0.654559,-0.0807 0.983919,-0.0956 0.31268,-0.0109 0.625607,-0.0174 0.938444,-0.017 0.104285,9e-5 0.208365,0.001 0.312643,0.003 0.596547,0.0153 1.18807,0.10119 1.776119,0.19689 0.608633,0.11444 1.215233,0.2386 1.821077,0.3669 0.591581,0.1332 1.182713,0.26861 1.775602,0.39584 0.139945,0.0268 0.27966,0.0554 0.419096,0.0847 -0.02441,-0.0288 -0.04896,-0.0575 -0.0739,-0.0858 -0.169917,-0.19408 -0.338832,-0.38907 -0.520898,-0.57206 -0.144265,-0.1449 -0.288253,-0.2944 -0.454753,-0.41393 -0.03378,-0.0242 -0.05635,-0.0507 -0.06976,-0.0765 -0.200346,-0.0482 -0.40042,-0.0978 -0.599964,-0.14934 -0.326205,-0.0732 -0.657394,-0.11617 -0.985986,-0.17725 -0.352463,-0.0721 -0.707988,-0.12402 -1.067118,-0.14987 -0.35823,-0.0247 -0.717412,-0.0275 -1.07642,-0.0258 -0.079,-2.5e-4 -0.157653,-10e-4 -0.236678,-10e-4 -0.05928,-1.5e-4 -0.118476,-3.1e-4 -0.177767,0 z m 1.847432,1.53531 c -0.0013,0.001 -0.0023,0.002 -0.0036,0.004 0.0076,8e-5 0.01516,-7e-5 0.02274,0 -0.0064,-0.001 -0.01276,-0.002 -0.01912,-0.004 z m 4.410067,0.0419 c 0.01225,0.0121 0.02474,0.0238 0.03772,0.0351 v -5.2e-4 c 0.0052,0.005 0.0099,0.009 0.01447,0.014 0.0014,-7e-5 0.0028,7e-5 0.0041,0 -0.01865,-0.0163 -0.03744,-0.0325 -0.05633,-0.0486 z m 0.490409,0.17725 c -0.0071,0.007 -0.01183,0.0109 -0.01809,0.017 0.0025,-0.001 0.0053,-0.002 0.0078,-0.004 0.0046,-0.003 0.01149,-0.0125 0.01033,-0.0124 z" />
  </g>
</svg>
