<?xml version="1.0" encoding="UTF-8" standalone="no"?>
<!-- Created with Inkscape (http://www.inkscape.org/) -->

<svg
   width="10.475857mm"
   height="7.7783966mm"
   viewBox="0 0 10.475857 7.7783966"
   version="1.1"
   id="svg5"
   inkscape:export-filename="full_logo.svg"
   inkscape:export-xdpi="96"
   inkscape:export-ydpi="96"
   xmlns:inkscape="http://www.inkscape.org/namespaces/inkscape"
   xmlns:sodipodi="http://sodipodi.sourceforge.net/DTD/sodipodi-0.dtd"
   xmlns="http://www.w3.org/2000/svg"
   xmlns:svg="http://www.w3.org/2000/svg">
  <sodipodi:namedview
     id="namedview7"
     pagecolor="#505050"
     bordercolor="#eeeeee"
     borderopacity="1"
     inkscape:showpageshadow="0"
     inkscape:pageopacity="0"
     inkscape:pagecheckerboard="0"
     inkscape:deskcolor="#505050"
     inkscape:document-units="mm"
     showgrid="false" />
  <defs
     id="defs2">
    <rect
       x="165.31007"
       y="340.91019"
       width="276.5874"
       height="101.34474"
       id="rect236-2" />
    <rect
       x="165.31007"
       y="340.91019"
       width="276.5874"
       height="101.34474"
       id="rect236-1" />
    <rect
       x="165.31007"
       y="340.91019"
       width="276.5874"
       height="101.34474"
       id="rect236-7" />
    <rect
       x="165.31007"
       y="340.91019"
       width="276.5874"
       height="101.34474"
       id="rect236-9" />
  </defs>
  <g
     inkscape:label="Capa 1"
     inkscape:groupmode="layer"
     id="layer1"
     transform="translate(-56.892225,-129.199)">
    <text
       xml:space="preserve"
       transform="matrix(0.15699313,0,0,0.15632133,31.701665,79.56348)"
       id="text234-9"
       style="font-size:53.3333px;line-height:0;white-space:pre;shape-inside:url(#rect236-2);display:inline;fill:#38bdf8;fill-opacity:1;stroke:#000000;stroke-opacity:0"
       inkscape:export-filename="./text234-9.svg"
       inkscape:export-xdpi="96"
       inkscape:export-ydpi="96"><tspan
         x="165.31055"
         y="356.10349"
         id="tspan43149">T</tspan></text>
    <path
       id="path30928-5"
       style="fill:#38bdf8;fill-opacity:1;stroke:#000000;stroke-width:0.0760693;stroke-opacity:0"
       d="m 70.364314,131.03545 c -4.64e-4,1.2e-4 -9.92e-4,2.9e-4 -0.0015,2.9e-4 2.7e-5,1.7e-4 1.22e-4,2.8e-4 1.48e-4,0.001 4.64e-4,-2.6e-4 9.26e-4,-0.001 0.0013,-0.001 z m 1.209085,0.11797 v 1.4e-4 c 0.0013,0.003 0.0025,0.005 0.0038,0.007 7.93e-4,1.2e-4 0.0016,2.8e-4 0.0024,0.001 6.51e-4,-0.003 0.0012,-0.005 0.0018,-0.007 -0.0027,-0.001 -0.0054,-0.001 -0.008,-0.001 z m 0.120046,0.051 c -0.0011,0.003 -0.0022,0.007 -0.0033,0.0104 0.0019,-0.001 0.0038,-0.002 0.0058,-0.003 -8.6e-4,-0.003 -0.0017,-0.005 -0.0025,-0.007 z m -2.348637,0.082 c -0.002,0.001 -0.0038,0.001 -0.0058,0.001 -0.01119,0.003 -0.02226,0.005 -0.03343,0.007 0.0018,2.4e-4 0.0037,-2.9e-4 0.0054,0.001 0.01131,-0.003 0.02256,-0.007 0.03387,-0.009 z m -2.976506,1.11519 c -0.064,0.0374 -0.127131,0.0766 -0.189281,0.11767 -0.241795,0.15385 -0.464456,0.33036 -0.675115,0.52401 -0.194416,0.17198 -0.382447,0.35338 -0.554324,0.54809 -0.147385,0.15899 -0.264129,0.34194 -0.397135,0.51198 -0.120292,0.17032 -0.257475,0.32699 -0.396839,0.48168 -0.171733,0.17531 -0.388842,0.29691 -0.602016,0.41452 -0.281269,0.12401 -0.577917,0.2076 -0.879104,0.26608 -0.36909,0.0577 -0.743764,0.0596 -1.116375,0.0663 -0.09062,0.001 -0.181241,0.001 -0.271889,-0.001 -0.0086,0.11539 -0.02264,0.23026 -0.04487,0.34395 -0.0156,0.0798 -0.03424,0.15745 -0.06077,0.23356 0.418273,0.0368 0.837436,0.0666 1.25737,0.061 0.382445,-0.003 0.767492,-0.001 1.144901,-0.0718 0.309137,-0.0677 0.615397,-0.15597 0.902728,-0.29046 0.224313,-0.1237 0.44753,-0.25529 0.626532,-0.44155 0.145106,-0.15445 0.279996,-0.3177 0.405158,-0.48881 0.121279,-0.16253 0.233857,-0.33194 0.369797,-0.48301 v -1.5e-4 c 0.01651,-0.0617 0.03327,-0.12338 0.05022,-0.18497 0.142272,-0.51948 0.28493,-1.03896 0.419569,-1.56046 0.0038,-0.0156 0.0076,-0.0312 0.01144,-0.0468 z m 0.765446,0.0718 c -0.0011,2.9e-4 -0.0022,0.001 -0.0034,0.001 1.2e-5,2.8e-4 -1e-5,0.001 0,0.001 9.92e-4,-0.001 0.0024,-0.001 0.0034,-0.003 z" />
    <path
       id="path37029-3"
       style="fill:#6d00ff;fill-opacity:1;stroke:#000000;stroke-width:0.0774419;stroke-opacity:0"
       d="m 60.884503,133.18548 c 0.04746,0.21973 0.09314,0.43991 0.137793,0.66023 0.0021,0.0106 0.0041,0.0212 0.0062,0.0318 0.27326,0.0294 0.545405,0.0682 0.816167,0.1154 0.240847,0.0433 0.475732,0.11258 0.711045,0.17848 0.185868,0.0546 0.370661,0.1161 0.551018,0.18711 0.04738,0.0187 0.269608,0.11376 0.313248,0.13234 0.231076,0.10395 0.461175,0.21603 0.674442,0.35378 0.06993,0.0452 0.24996,0.17814 0.315062,0.22568 0.233337,0.17728 0.444894,0.3827 0.644191,0.59715 0.04992,0.0538 0.09736,0.10973 0.146565,0.16411 0.05048,0.0558 0.101633,0.11092 0.152464,0.16637 0.05563,0.0591 0.112089,0.11748 0.166834,0.17743 0.192138,0.21038 0.12248,0.14711 0.319146,0.35318 0.05554,0.0582 0.113193,0.1144 0.169707,0.17167 0.05291,0.0536 0.104349,0.10873 0.158665,0.16094 0.0017,0.002 0.0035,0.003 0.0051,0.005 -4.39e-4,-0.07 -7.88e-4,-0.13996 -0.0012,-0.20994 -0.0012,-0.25764 -1.77e-4,-0.51537 0.0076,-0.77291 0.0034,-0.14238 0.0067,-0.28479 0.01074,-0.42714 -0.183061,-0.20645 -0.03969,-0.0473 -0.282392,-0.3078 -0.117352,-0.12597 -0.189884,-0.21112 -0.312793,-0.3311 -0.05197,-0.0507 -0.106437,-0.0989 -0.160179,-0.14777 -0.05334,-0.0485 -0.10737,-0.0962 -0.161085,-0.1443 -0.0527,-0.0415 -0.103938,-0.0848 -0.15806,-0.12448 -0.05252,-0.0385 -0.107421,-0.0737 -0.161691,-0.10966 -0.05562,-0.0368 -0.111107,-0.074 -0.168043,-0.10875 -0.161072,-0.0984 -0.33135,-0.17931 -0.49808,-0.26727 -0.27478,-0.12772 -0.551206,-0.25247 -0.836737,-0.35454 -0.24066,-0.0754 -0.486891,-0.13159 -0.734793,-0.17757 -0.151747,-0.0259 -0.303791,-0.0477 -0.456939,-0.064 -0.139609,-0.0148 -0.214728,-0.0183 -0.356354,-0.0303 -0.06648,-0.006 -0.132895,-0.012 -0.199353,-0.018 -0.06718,-0.007 -0.134441,-0.014 -0.201621,-0.021 -0.06658,-0.006 -0.133175,-0.0101 -0.199656,-0.0168 -0.139199,-0.014 -0.277926,-0.032 -0.417008,-0.0472 z m -3.953328,0.47811 -0.0098,0.008 c 0.0032,-7.9e-4 0.0064,-0.002 0.0095,-0.003 1.19e-4,-0.002 1.86e-4,-0.003 2.92e-4,-0.004 z M 66.770707,136.1 c -10e-7,4.7e-4 -4e-6,7.8e-4 0,0.002 7.5e-5,0.006 -2.94e-4,0.0113 -2.94e-4,0.0169 0.0055,-7.9e-4 0.01098,-0.002 0.01649,-0.002 -0.0054,-0.006 -0.01082,-0.0107 -0.01618,-0.0162 z" />
    <text
       xml:space="preserve"
       transform="matrix(0.06447324,0,0,0.06447324,49.865508,109.86467)"
       id="text234-2"
       style="font-size:53.3333px;line-height:0;white-space:pre;shape-inside:url(#rect236-1);display:inline;fill:#38bdf8;fill-opacity:1;stroke:#000000;stroke-opacity:0"><tspan
         x="165.31055"
         y="356.10349"
         id="tspan43153"><tspan
           style="opacity:1"
           id="tspan43151">o </tspan></tspan></text>
    <text
       xml:space="preserve"
       transform="matrix(0.0780037,0,0,0.0780037,49.899727,105.21642)"
       id="text234-0"
       style="font-size:53.3333px;line-height:0;white-space:pre;shape-inside:url(#rect236-7);display:inline;fill:#38bdf8;fill-opacity:1;stroke:#000000;stroke-opacity:0"><tspan
         x="165.31055"
         y="356.10349"
         id="tspan43157"><tspan
           style="opacity:1"
           id="tspan43155">D </tspan></tspan></text>
    <text
       xml:space="preserve"
       transform="matrix(0.05884667,0,0,0.05884667,55.881373,110.87199)"
       id="text234-3"
       style="font-size:53.3333px;line-height:0;white-space:pre;shape-inside:url(#rect236-9);display:inline;fill:#38bdf8;fill-opacity:1;stroke:#000000;stroke-opacity:0"><tspan
         x="165.31055"
         y="356.10349"
         id="tspan43159">o</tspan></text>
  </g>
</svg>
